/* XPM */
static char *result[] = {
/* columns rows colors chars-per-pixel */
"32 32 8 1 ",
"  c black",
". c #0D0712",
"X c #500531",
"o c #880B39",
"O c #C30E2E",
"+ c #ED1F2C",
"@ c #FC4F4F",
"# c None",
/* pixels */
"################################",
"################################",
"################################",
"################################",
"################################",
"################################",
"################################",
"####################..##########",
"###################.+.##########",
"###################.O+.#########",
"###################.Oo+.########",
"##############    .Xooo@..######",
"############  OOOOooooO+@.######",
"########### Ooo+++OOoX...#######",
"########### oo++@@++O.##########",
"########## ooO+@@@@+O ##########",
"########## ooO++@@@+O ##########",
"########## XoOO++@@+O ##########",
"########## XooOO+++OO ##########",
"##########.XXooOOOOo ###########",
"#######...oXXooooooo ###########",
"######.O+ooXXXXXoo  ############",
"######..oXXXO.    ##############",
"########.oXo.###################",
"#########.oo.###################",
"##########.O.###################",
"##########..####################",
"################################",
"################################",
"################################",
"################################",
"################################"
};
