/* XPM */
static char *result[] = {
/* columns rows colors chars-per-pixel */
"32 32 187 2 ",
"   c #000008",
".  c #00000B",
"X  c #00000C",
"o  c #00000E",
"O  c #00000F",
"+  c #000010",
"@  c #000011",
"#  c #000012",
"$  c #0F0717",
"%  c #100214",
"&  c #110717",
"*  c #1B0B17",
"=  c #1D0D17",
"-  c #180B18",
";  c #180C18",
":  c #190C18",
">  c #180D18",
",  c #1A0C18",
"<  c #1B0E18",
"1  c #1D0E18",
"2  c #1C0E19",
"3  c #1E0E18",
"4  c #1F0E19",
"5  c #1F0F19",
"6  c #1D0E1A",
"7  c #200F18",
"8  c #200F19",
"9  c #221019",
"0  c #23121A",
"q  c #24121A",
"w  c #25131A",
"e  c #26131A",
"r  c #27141B",
"t  c #29151B",
"y  c #28151C",
"u  c #2E1A1D",
"i  c #321712",
"p  c #321E1C",
"a  c #391D1C",
"s  c #271822",
"d  c #291922",
"f  c #3F2722",
"g  c #572C1E",
"h  c #582C1E",
"j  c #602E1A",
"k  c #753E17",
"l  c #402722",
"z  c #412825",
"x  c #432A26",
"c  c #462A24",
"v  c #462B25",
"b  c #462B26",
"n  c #472D27",
"m  c #4A2E28",
"M  c #4B2F28",
"N  c #4C2F28",
"B  c #4C302C",
"V  c #4E332E",
"C  c #5E3223",
"Z  c #543228",
"A  c #543229",
"S  c #553229",
"D  c #573836",
"F  c #51383A",
"G  c #583B3A",
"H  c #5C3D3D",
"J  c #5D3F3F",
"K  c #643727",
"L  c #683725",
"P  c #643728",
"I  c #65392B",
"U  c #693A2A",
"Y  c #7C421D",
"T  c #794323",
"R  c #7E4A2E",
"E  c #694639",
"W  c #784A31",
"Q  c #794A31",
"!  c #764B38",
"~  c #72483D",
"^  c #724B3D",
"/  c #754E3E",
"(  c #7A4D39",
")  c #7D4E38",
"_  c #7D4F38",
"`  c #7B4F3C",
"'  c #7B513E",
"]  c #7C513E",
"[  c #7C513F",
"{  c #7F523F",
"}  c #604343",
"|  c #744F40",
" . c #714E46",
".. c #824516",
"X. c #834516",
"o. c #8D4F25",
"O. c #945328",
"+. c #855337",
"@. c #855437",
"#. c #8E5533",
"$. c #81553E",
"%. c #965A37",
"&. c #B15B28",
"*. c #A15731",
"=. c #AE623B",
"-. c #B56235",
";. c #B66236",
":. c #BE6837",
">. c #B6673E",
",. c #B7673E",
"<. c #C6672B",
"1. c #C7672B",
"2. c #C86D3A",
"3. c #835741",
"4. c #845847",
"5. c #8F5840",
"6. c #8E5B42",
"7. c #8F5C44",
"8. c #8F5E48",
"9. c #905940",
"0. c #905E45",
"q. c #905F47",
"w. c #966047",
"e. c #9D6144",
"r. c #9F6245",
"t. c #926048",
"y. c #9D6348",
"u. c #9D6349",
"i. c #9D634A",
"p. c #9E6449",
"a. c #9E644A",
"s. c #836058",
"d. c #846058",
"f. c #8E695F",
"g. c #9F6852",
"h. c #9B6A57",
"j. c #92695D",
"k. c #9D6B58",
"l. c #A6694E",
"z. c #B06441",
"x. c #B06646",
"c. c #B56B4B",
"v. c #B56C4B",
"b. c #BD6F4A",
"n. c #BD714E",
"m. c #A06952",
"M. c #B0725F",
"N. c #8E716B",
"B. c #8B736F",
"V. c #8F726C",
"C. c #967771",
"Z. c #987A73",
"A. c #937C78",
"S. c #947D79",
"D. c #967D78",
"F. c #BB7A64",
"G. c #BE7C66",
"H. c #AF7F73",
"J. c #C46F48",
"K. c #C3714E",
"L. c #C6744E",
"P. c #C67652",
"I. c #C77753",
"U. c #D67D55",
"Y. c #C27E68",
"T. c #9B827F",
"R. c #B98577",
"E. c #BD897C",
"W. c #C08A7B",
"Q. c #968084",
"!. c #968085",
"~. c #9B8285",
"^. c #998387",
"/. c #9C8387",
"(. c #9199A7",
"). c #919AA7",
"_. c #929AA7",
"`. c #949CA9",
"'. c #ACAEB5",
"]. c #B0AFB6",
"[. c #B1B1B8",
"{. c #B0B1BA",
"}. c #A2B4C2",
"|. c #A2B5C2",
" X c #A2B4C3",
".X c #A4B7C5",
"XX c None",
/* pixels */
"XXXXXXXXXXXXK.U.U.K.XXXXXXXXXXXXXXXXXXXXXXXXK.U.U.K.XXXXXXXXXXXX",
"XXXXXXXXXXXXv.I.I.c.XXXXXXXXXXXXXXXXXXXXXXXXv.I.I.c.XXXXXXXXXXXX",
"XXXXXXXXXXXXw.l.l.w.XXXXXXXXXXXXXXXXXXXXXXXXw.l.l.w.XXXXXXXXXXXX",
"XXXXXXXXXXXX3.q.0.$.XXXXXXXXXXXXXXXXXXXXXXXX$.0.q.3.XXXXXXXXXXXX",
"XXXXXXXXXXXX+.%.O.X.XXXXXXXXXXXXXXXXXXXXXXXX..O.%.@.XXXXXXXXXXXX",
"XXXXXXXXXXXXf.C.T.D.XXXXXXXXXXXXXXXXXXXXXXXXD.T.C.f.XXXXXXXXXXXX",
"w > O L -.G.^.`..X{.E.1.J.K.K.K.K.K.K.J.<.E.{..X`.^.G.;.L O - w ",
"y 6 @ U ,.Y./.). X[.W.2.L.P.P.P.P.P.P.L.2.W.[. X)./.Y.>.U @ 6 y ",
"e 5 @ S 9.m.j.N.A.Z.k.r.p.a.a.a.a.a.a.p.r.k.Z.A.N.j.m.9.S @ 4 e ",
"w 9 % z E ' _ R Y T ! | / / / / / / / / | ! T Y R ) ' E z % 9 w ",
"w q 8 u l V G J H D B v n n n n n n n n v B D H J G V f u 8 q w ",
"w w r = . s F } } F d   @ # # # # # # @   d F } } F s . = r w w ",
"w w w 7 @ x ^ 4.4.^ x @ * 8 8 8 8 8 8 * @ x ^ 4.4.^ x @ 7 w w w ",
"w w w 8 # N { t.t.{ M # 8 w w w w w w 8 # N { t.t.{ M # 8 w w w ",
"w w w 8 # m [ 8.8.[ m # 8 w w w w w w 8 # m [ 8.8.[ m # 8 w w w ",
"w w w 8 # m ] 8.8.] m # 8 w w w w w w 8 # m ] 8.8.] m # 8 w w w ",
"w w w 8 # m ] 8.8.] m # 8 w w w w w w 8 # m ] 8.8.] m # 8 w w w ",
"w w w 8 # m ] 8.8.] m # 8 w w w w w w 8 # m ] 8.8.] m # 8 w w w ",
"w w w 8 # m ] 8.8.] m # 8 w w w w w w 8 # m ] 8.8.] m # 8 w w w ",
"w w e 1 @ b ` 7.6.( c @ & : : : : : : & # c ( 6.7.` b @ 1 e w w ",
"w e t $ X p Q #.o.k i o O + + + + + + O o i k o.#.W p X $ t e w ",
"w 0 ; a h ~ d.V.S.B. .j P I I I I I I P j  .B.S.V.s.~ g a ; 0 w ",
"w 2 # C *.M.!._.|.'.H.&.z.x.x.x.x.x.x.z.&.H.'.|._.Q.M.*.C # < w ",
"w , O P =.F.~.(.}.].R.:.b.n.n.n.n.n.n.b.:.R.].}.(.~.F.=.K O : w ",
"w 3 @ A 5.g.j.N.A.Z.h.e.y.i.i.i.i.i.i.u.e.h.Z.A.N.j.g.5.Z @ 3 w ",
"w 9 % z E ' _ R Y T ! | / / / / / / / / | ! T Y R ) ' E z % 9 w ",
"w q 8 u l V G J H D B v n n n n n n n n v B D H J G V f u 8 q w ",
"w w r = . s F } } F d   @ # # # # # # @   d F } } F s . = r w w ",
"w w w 7 @ x ^ 4.4.^ x @ * 8 8 8 8 8 8 * @ x ^ 4.4.^ x @ 7 w w w ",
"w w w 8 # N { t.t.{ M # 8 w w w w w w 8 # N { t.t.{ M # 8 w w w ",
"w w w 8 # m [ 8.8.[ m # 8 w w w w w w 8 # m [ 8.8.[ m # 8 w w w ",
"w w w 8 # m ] 8.8.] m # 8 w w w w w w 8 # m ] 8.8.] m # 8 w w w "
};
