/* XPM */
static char *result[] = {
/* columns rows colors chars-per-pixel */
"32 32 11 1 ",
"  c #0D0712",
". c #420D0B",
"X c #542A23",
"o c #663931",
"O c #AE3315",
"+ c #8F563B",
"@ c #DF4A26",
"# c #F25C27",
"$ c #F87820",
"% c #FA9741",
"& c None",
/* pixels */
"&&&&&&&&&&&&&&&&&&&&&&&&&&&&&&&&",
"&&&&&&&&&&&&&&&&&&&&&&&&&&&&&&&&",
"&&&&&&&&&&&&&&&&&&&&&&&&&&&&&&&&",
"&&&&&&&&&&&&&&&&&&&&&&&&&&&&&&&&",
"&&&&&&&&&&&&&&&&&&&&&&&&&&&&&&&&",
"&&&&&&&&&&&&&  &&&&&&&&&&&&&&&&&",
"&&&&&&&&&&&&& + &&&&&&&&&&&&&&&&",
"&&&&&&&&&&&&& o+ &&&&&&&&&&&&&&&",
"&&&&&&&&&&&& oo+ &&&&&&&&&&&&&&&",
"&&&&&&&&&&   XXoX   &&&&&&&&&&&&",
"&&&&&&&&& ##@#XX##@# &&&&&&&&&&&",
"&&&&&&&& @#@#$#$%#@@# &&&&&&&&&&",
"&&&&&&& @##@#$@#$%@@$# &&&&&&&&&",
"&&&&&& @@#@@$%@@#%#@#$ &&&&&&&&&",
"&&&&&& @##@#%$@@#%#@#%# &&&&&&&&",
"&&&&&& @#@@#$$#@##.@#%# &&&&&&&&",
"&&&&&& @#X..###@#..X#$% &&&&&&&&",
"&&&&&& O@#X...#@..XX#@# &&&&&&&&",
"&&&&&& O@@@XX.#@.XX@#@# &&&&&&&&",
"&&&&&& O@@@@###@##@@.@# &&&&&&&&",
"&&&&&&& O@.@@.@@@.@.@O &&&&&&&&&",
"&&&&&&& O@@......XX@@O &&&&&&&&&",
"&&&&&&&& OO@XXXXX@@OO &&&&&&&&&&",
"&&&&&&&&&   OOOOOO   &&&&&&&&&&&",
"&&&&&&&&&&&&      &&&&&&&&&&&&&&",
"&&&&&&&&&&&&&&&&&&&&&&&&&&&&&&&&",
"&&&&&&&&&&&&&&&&&&&&&&&&&&&&&&&&",
"&&&&&&&&&&&&&&&&&&&&&&&&&&&&&&&&",
"&&&&&&&&&&&&&&&&&&&&&&&&&&&&&&&&",
"&&&&&&&&&&&&&&&&&&&&&&&&&&&&&&&&",
"&&&&&&&&&&&&&&&&&&&&&&&&&&&&&&&&",
"&&&&&&&&&&&&&&&&&&&&&&&&&&&&&&&&"
};
