/* XPM */
static char *result[] = {
/* columns rows colors chars-per-pixel */
"32 32 48 1 ",
"  c #1D0C0E",
". c #1F0D13",
"X c #210F15",
"o c #221016",
"O c #25131B",
"+ c #29161F",
"@ c #2D191E",
"# c #271420",
"$ c #291721",
"% c #2D1A23",
"& c #2E1A28",
"* c #311D24",
"= c #321E2A",
"- c #361F33",
"; c #35212C",
": c #38242F",
"> c #372133",
", c #3B2535",
"< c #3E2937",
"1 c #3D253B",
"2 c #3E2939",
"3 c #40273D",
"4 c #422A3C",
"5 c #482F3F",
"6 c #47303D",
"7 c #4D333D",
"8 c #50343F",
"9 c #55383F",
"0 c #452A45",
"q c #482F40",
"w c #472B48",
"e c #492D49",
"r c #4C3341",
"t c #4E3149",
"y c #543740",
"u c #543841",
"i c #5D3E44",
"p c #553649",
"a c #59394B",
"s c #563456",
"d c #5E3C53",
"f c #583658",
"g c #6E4A47",
"h c #654348",
"j c #69464A",
"k c #704C47",
"l c #724D4B",
"z c #78514F",
/* pixels */
"eewewewwwessewwessssfffffsewweee",
"eppppppppaddppppddddddddddpppppe",
"ephjjjjjjjjjjjjjjjjjjjjjjjjjjhpe",
"wpjkgkkglljgklggkkklgkkkggglkjpw",
"ephlgkkgjggggggggggjggjgjgggkjpw",
"epjzkkkllllllllllllllllllkllljaw",
"ealzzzzzzzzzzzzzzzzzzzzzzzzzzlae",
"0pjzllllllllllllllllllllllllzjp0",
"10piiiiiiiiiiiiiiiiiiiiiiiiiiy53",
"11798888888y8888y7y78888yy888843",
"1479y9y9yyyyy9y9yyyyyyyyyyyy9ywe",
"1479yyyyy8yyyyyyyyy9yyy9yy8y8ytw",
"130yyuyyyy9y9yyyyyyi999yu9uyyq40",
"-14q778r88888877778785878887541-",
"+&144414444043333333343434433131",
"O&>3444341-131443333434444333311",
"-,2q79r7q222266u9888888888985333",
"10ryy9uyr6026uuu9999yyyy9yyyy51-",
"107uyyy9ur22ruuuyy9y9y99yy9y97=O",
">,7uyy99ur22uuuuy9yyy899yyyy97-O",
"O=5ruuu9rr026uuuyiyyiy99iyy9853-",
"+&2rrr87621><<66777877777788533-",
"111222=@%$##%%%%@*******@*4043=O",
">1112<=+%%%%@%%@+OXXO+++O&-3--&#",
"$=,6676666666666<:O+,<<<3344=%>,",
".$<7ruuuuuuuuuuur<%%<622644:OO>1",
".*68uuuuuuuu7uuuu6@$24;%46=+OO$%",
".=68rrr6rrrr6u6r86*+:,%%::+ OOoo",
"o%2626662rq2r2r26<=o+;,<;@OoOOOo",
"o%:<<<<<<<<<<<<<<:%X @,,@ oOOOOO",
"o+%%%%%%%%%%%%%%%%OOo+%$OoOOOOOO",
"+oooooooXXXXXXXXXXOOOOooOOOOOOOO"
};
